<mxfile host="app.diagrams.net" agent="Mozilla/5.0 (Windows NT 10.0; Win64; x64) AppleWebKit/537.36 (KHTML, like Gecko) Chrome/127.0.0.0 Safari/537.36" version="24.7.7">
  <diagram name="第 1 页" id="KEsMgx6m-qjF0W_5dunA">
    <mxGraphModel dx="1221" dy="725" grid="1" gridSize="10" guides="1" tooltips="1" connect="1" arrows="1" fold="1" page="1" pageScale="1" pageWidth="827" pageHeight="1169" math="0" shadow="0">
      <root>
        <mxCell id="0" />
        <mxCell id="1" parent="0" />
        <mxCell id="QcbSQyFvmF3JBZQgwbwG-10" style="rounded=0;orthogonalLoop=1;jettySize=auto;html=1;exitX=0.4;exitY=0.1;exitDx=0;exitDy=0;exitPerimeter=0;" edge="1" parent="1" source="QcbSQyFvmF3JBZQgwbwG-1" target="QcbSQyFvmF3JBZQgwbwG-2">
          <mxGeometry relative="1" as="geometry" />
        </mxCell>
        <mxCell id="QcbSQyFvmF3JBZQgwbwG-11" style="rounded=0;orthogonalLoop=1;jettySize=auto;html=1;exitX=0.25;exitY=0.25;exitDx=0;exitDy=0;exitPerimeter=0;" edge="1" parent="1" source="QcbSQyFvmF3JBZQgwbwG-1" target="QcbSQyFvmF3JBZQgwbwG-3">
          <mxGeometry relative="1" as="geometry" />
        </mxCell>
        <mxCell id="QcbSQyFvmF3JBZQgwbwG-12" style="rounded=0;orthogonalLoop=1;jettySize=auto;html=1;exitX=0.13;exitY=0.77;exitDx=0;exitDy=0;exitPerimeter=0;" edge="1" parent="1" source="QcbSQyFvmF3JBZQgwbwG-1" target="QcbSQyFvmF3JBZQgwbwG-4">
          <mxGeometry relative="1" as="geometry" />
        </mxCell>
        <mxCell id="QcbSQyFvmF3JBZQgwbwG-13" style="rounded=0;orthogonalLoop=1;jettySize=auto;html=1;exitX=0.31;exitY=0.8;exitDx=0;exitDy=0;exitPerimeter=0;" edge="1" parent="1" source="QcbSQyFvmF3JBZQgwbwG-1" target="QcbSQyFvmF3JBZQgwbwG-5">
          <mxGeometry relative="1" as="geometry" />
        </mxCell>
        <mxCell id="QcbSQyFvmF3JBZQgwbwG-14" style="rounded=0;orthogonalLoop=1;jettySize=auto;html=1;exitX=0.8;exitY=0.8;exitDx=0;exitDy=0;exitPerimeter=0;entryX=0.5;entryY=0;entryDx=0;entryDy=0;" edge="1" parent="1" source="QcbSQyFvmF3JBZQgwbwG-1" target="QcbSQyFvmF3JBZQgwbwG-6">
          <mxGeometry relative="1" as="geometry" />
        </mxCell>
        <mxCell id="QcbSQyFvmF3JBZQgwbwG-15" style="rounded=0;orthogonalLoop=1;jettySize=auto;html=1;exitX=0.96;exitY=0.7;exitDx=0;exitDy=0;exitPerimeter=0;" edge="1" parent="1" source="QcbSQyFvmF3JBZQgwbwG-1" target="QcbSQyFvmF3JBZQgwbwG-7">
          <mxGeometry relative="1" as="geometry" />
        </mxCell>
        <mxCell id="QcbSQyFvmF3JBZQgwbwG-16" style="rounded=0;orthogonalLoop=1;jettySize=auto;html=1;exitX=0.88;exitY=0.25;exitDx=0;exitDy=0;exitPerimeter=0;" edge="1" parent="1" source="QcbSQyFvmF3JBZQgwbwG-1" target="QcbSQyFvmF3JBZQgwbwG-8">
          <mxGeometry relative="1" as="geometry" />
        </mxCell>
        <mxCell id="QcbSQyFvmF3JBZQgwbwG-17" style="rounded=0;orthogonalLoop=1;jettySize=auto;html=1;exitX=0.625;exitY=0.2;exitDx=0;exitDy=0;exitPerimeter=0;entryX=0.5;entryY=1;entryDx=0;entryDy=0;" edge="1" parent="1" source="QcbSQyFvmF3JBZQgwbwG-1" target="QcbSQyFvmF3JBZQgwbwG-9">
          <mxGeometry relative="1" as="geometry" />
        </mxCell>
        <mxCell id="QcbSQyFvmF3JBZQgwbwG-1" value="&lt;b&gt;道路标出功能&lt;/b&gt;" style="ellipse;shape=cloud;whiteSpace=wrap;html=1;" vertex="1" parent="1">
          <mxGeometry x="344" y="320" width="140" height="100" as="geometry" />
        </mxCell>
        <mxCell id="QcbSQyFvmF3JBZQgwbwG-2" value="起点和终点选择" style="rounded=1;whiteSpace=wrap;html=1;" vertex="1" parent="1">
          <mxGeometry x="270" y="200" width="120" height="60" as="geometry" />
        </mxCell>
        <mxCell id="QcbSQyFvmF3JBZQgwbwG-3" value="系统标出途径道路" style="rounded=1;whiteSpace=wrap;html=1;" vertex="1" parent="1">
          <mxGeometry x="150" y="280" width="120" height="60" as="geometry" />
        </mxCell>
        <mxCell id="QcbSQyFvmF3JBZQgwbwG-4" value="交通工具类型选择&lt;div style=&quot;font-size: 10px;&quot;&gt;（&lt;span style=&quot;background-color: initial;&quot;&gt;&lt;font style=&quot;font-size: 10px;&quot; face=&quot;Helvetica&quot; color=&quot;#3d3929&quot;&gt;&lt;span style=&quot;letter-spacing: -0.4px; white-space-collapse: preserve;&quot;&gt;步行、摩托、坦克、卡车、火炮等&lt;/span&gt;&lt;/font&gt;）&lt;/span&gt;&lt;/div&gt;" style="rounded=1;whiteSpace=wrap;html=1;align=center;" vertex="1" parent="1">
          <mxGeometry x="150" y="390" width="130" height="60" as="geometry" />
        </mxCell>
        <mxCell id="QcbSQyFvmF3JBZQgwbwG-5" value="交通时间计算显示" style="rounded=1;whiteSpace=wrap;html=1;" vertex="1" parent="1">
          <mxGeometry x="270" y="480" width="120" height="60" as="geometry" />
        </mxCell>
        <mxCell id="QcbSQyFvmF3JBZQgwbwG-6" value="不同结果列表对比" style="rounded=1;whiteSpace=wrap;html=1;" vertex="1" parent="1">
          <mxGeometry x="440" y="480" width="120" height="60" as="geometry" />
        </mxCell>
        <mxCell id="QcbSQyFvmF3JBZQgwbwG-7" value="路线参数自定义调整" style="rounded=1;whiteSpace=wrap;html=1;" vertex="1" parent="1">
          <mxGeometry x="550" y="390" width="120" height="60" as="geometry" />
        </mxCell>
        <mxCell id="QcbSQyFvmF3JBZQgwbwG-8" value="系统更新计算结果" style="rounded=1;whiteSpace=wrap;html=1;" vertex="1" parent="1">
          <mxGeometry x="550" y="290" width="120" height="60" as="geometry" />
        </mxCell>
        <mxCell id="QcbSQyFvmF3JBZQgwbwG-9" value="保存和导出分析结果" style="rounded=1;whiteSpace=wrap;html=1;" vertex="1" parent="1">
          <mxGeometry x="440" y="200" width="120" height="60" as="geometry" />
        </mxCell>
      </root>
    </mxGraphModel>
  </diagram>
</mxfile>
